<svg width="36" height="36" viewBox="0 0 36 36" fill="none" xmlns="http://www.w3.org/2000/svg"><path d="M18 6.174a5.012 5.012 0 015.012 5.01v2.343h4.86v15.735a1.077 1.077 0 01-1.078 1.077H9.206a1.08 1.08 0 01-.995-.665 1.077 1.077 0 01-.082-.412V13.527h4.86v-2.342A5.014 5.014 0 0118 6.174zM9.357 29.11h17.286V14.756h-3.631v.926h-1.229v-.926h-7.566v.926h-1.229v-.926h-3.63V29.11zM18 7.402a3.782 3.782 0 00-3.783 3.783v2.342h7.566v-2.342A3.783 3.783 0 0018 7.402z" fill="#FCFDFE" stroke="#FCFDFE" stroke-width=".2"/></svg>