<svg width="36" height="36" viewBox="0 0 36 36" fill="none" xmlns="http://www.w3.org/2000/svg"><path d="M17.999 19.611c2.686 0 5.118.96 6.88 2.403 1.76 1.44 2.86 3.371 2.86 5.313v.046l-.036.03a15.02 15.02 0 01-19.408 0l-.035-.03v-.046c0-1.942 1.099-3.872 2.86-5.313 1.761-1.442 4.194-2.403 6.879-2.403zm0 1.229c-2.395 0-4.554.858-6.101 2.124-1.382 1.132-2.206 2.523-2.377 3.85A13.791 13.791 0 0018 29.73c3.072 0 6.054-1.028 8.477-2.916-.17-1.327-.994-2.718-2.375-3.85v-.001C22.554 21.697 20.395 20.84 18 20.84zm-.001-12.1a5.042 5.042 0 014.722 3.095 5.04 5.04 0 11-4.722-3.095zm.003 1.229a3.813 3.813 0 10.124 7.624A3.813 3.813 0 0018 9.969z" fill="#FCFDFE" stroke="#FCFDFE" stroke-width=".2"/></svg>