<svg width="126" height="37" viewBox="0 0 126 37" fill="none" xmlns="http://www.w3.org/2000/svg"><path d="M48.418 28.338h-6.507V.737h6.507v27.6zM8.763 7.678C3.52 7.678 0 10.36 0 14.352c0 4.922 4.726 5.713 8.188 6.217 1.434.209 2.324.767 2.324 1.879 0 1.144-.562 1.944-1.75 1.944-1.299 0-1.748-.8-1.748-1.944v-1.451H.522v1.45c0 3.089 2.58 6.413 8.24 6.413 5.663 0 8.241-3.324 8.241-6.412 0-4.971-4.842-5.584-8.317-6.347-1.39-.306-2.179-.771-2.179-1.75 0-1.318.758-2.205 2.256-2.205 1.4 0 2.255.887 2.255 2.206v1.45h6.508v-1.45c0-3.992-3.522-6.674-8.763-6.674zM29.64 24.392c-2.903 0-4.084-2.747-4.084-6.123 0-3.376 1.312-6.123 4.084-6.123 2.873 0 4.083 2.747 4.083 6.123 0 3.376-1.236 6.123-4.083 6.123zm0-16.714c-6.855 0-10.591 4.751-10.591 10.591 0 5.84 3.503 10.591 10.59 10.591 7.291 0 10.591-4.751 10.591-10.591 0-5.84-3.625-10.59-10.59-10.59zm28.223 20.66h-6.507V8.2h6.507v20.138zm.177-24.906a3.432 3.432 0 10-6.862 0 3.432 3.432 0 006.863 0zm35.787 20.96c-2.758 0-4.027-2.747-4.027-6.123 0-3.376 1.302-6.123 4.027-6.123 3.07 0 4.026 2.747 4.026 6.123 0 3.376-1.004 6.123-4.026 6.123zM92.314 7.678c-5.666 0-9.078 4.751-9.078 10.591 0 5.84 3.272 10.591 9.078 10.591 4.92 0 7.695-4.751 7.695-10.591 0-5.84-2.676-10.59-7.695-10.59z" fill="#000A1D"/><path d="M104.36 28.338h-6.507V8.2h6.507v20.138zm-33.591-3.946c-2.758 0-4.026-2.747-4.026-6.123 0-3.376 1.301-6.123 4.026-6.123 3.07 0 4.026 2.747 4.026 6.123 0 3.376-1.003 6.123-4.026 6.123zM69.256 7.678c-5.665 0-9.078 4.751-9.078 10.591 0 5.84 3.272 10.591 9.078 10.591 4.92 0 7.695-4.751 7.695-10.591 0-5.84-2.676-10.59-7.695-10.59z" fill="#000A1D"/><path d="M81.35 28.338h-6.507V.737h6.507v27.6zm33.47 7.937L125.961 8.2h-4.852l-4.106 10.274-.446 2.027-.508-2.014L112.534 8.2h-7.064l7.616 20.138-3.118 7.937h4.852z" fill="#000A1D"/></svg>